<?xml version="1.0" standalone="no"?><!DOCTYPE svg PUBLIC "-//W3C//DTD SVG 1.1//EN" "http://www.w3.org/Graphics/SVG/1.1/DTD/svg11.dtd"><svg t="1646915090994" class="icon" viewBox="0 0 1024 1024" version="1.1" xmlns="http://www.w3.org/2000/svg" p-id="1732" xmlns:xlink="http://www.w3.org/1999/xlink" width="200" height="200"><defs><style type="text/css"></style></defs><path d="M936.7 240.6c32.6 64.2-0.6 146.6-74.1 183.9-73.5 37.3-159.5 15.4-192.1-48.8-32.6-64.2 0.6-146.6 74.1-183.9 73.5-37.3 159.5-15.4 192.1 48.8z" fill="#FFC831" p-id="1733"></path><path d="M788.1 453.6c-13.4 0-26.6-1.6-39.5-4.9-39.4-10-70.6-34.2-87.8-68.1-17.2-33.9-18.4-73.4-3.2-111.1 15-37.2 44.1-68.3 82-87.5 78.8-40 171.5-15.9 206.8 53.6 35.3 69.5-0.1 158.6-78.9 198.6-25.3 12.9-52.5 19.4-79.4 19.4z m31.1-269c-23 0-47 5.5-69.7 17-33.2 16.8-58.7 43.9-71.7 76.2-12.8 31.8-12 64.8 2.4 93 14.3 28.2 40.5 48.4 73.7 56.8 33.8 8.6 70.6 4 103.8-12.8 68-34.5 99.1-110.4 69.3-169.2-19.9-39.2-61.9-61-107.8-61z" fill="#7F0518" p-id="1734"></path><path d="M773.7 402.6c-26.2 0-48.2-10.8-60.2-29.7-21.7-34.2-4.3-84.3 38.8-111.7 17.9-11.4 37.8-17.4 57.4-17.4 26.3 0 48.2 10.8 60.2 29.7 21.7 34.2 4.3 84.3-38.8 111.7-17.9 11.3-37.7 17.4-57.4 17.4z" fill="#FF6A48" p-id="1735"></path><path d="M809.8 254.7c22.4 0 41 9 50.9 24.6 18.5 29.1 2.6 72.4-35.5 96.6-15.9 10.1-34.2 15.7-51.6 15.7-22.4 0-41-9-51-24.6-18.5-29.1-2.6-72.4 35.5-96.6 16-10.2 34.4-15.7 51.7-15.7m0-21.9c-20.8 0-43 6.2-63.3 19.1-48.3 30.7-67.2 87.5-42.2 126.8 14.5 22.8 40.6 34.8 69.4 34.8 20.8 0 43-6.2 63.3-19.1 48.3-30.7 67.2-87.5 42.2-126.8-14.5-22.8-40.6-34.8-69.4-34.8z" fill="#7F0518" p-id="1736"></path><path d="M87.5 240.6c-32.6 64.2 0.6 146.6 74.1 183.9 73.5 37.3 159.5 15.4 192.1-48.8 32.6-64.2-0.6-146.6-74.1-183.9-73.5-37.3-159.5-15.4-192.1 48.8z" fill="#FFC831" p-id="1737"></path><path d="M236.1 453.6c-26.9 0-54.2-6.6-79.5-19.4-78.7-40-114.1-129-78.9-198.6 35.3-69.5 128-93.6 206.8-53.6 78.8 40 114.1 129.1 78.9 198.6-17.2 33.9-48.4 58.1-87.8 68.1-12.8 3.3-26.1 4.9-39.5 4.9zM97.2 245.5c-29.8 58.8 1.3 134.7 69.3 169.2 33.2 16.8 70 21.4 103.7 12.8 33.2-8.4 59.4-28.6 73.7-56.8 29.8-58.8-1.3-134.7-69.3-169.2-67.9-34.5-147.6-14.7-177.4 44z" fill="#7F0518" p-id="1738"></path><path d="M250.5 402.6c-19.7 0-39.5-6-57.4-17.4-43.1-27.4-60.6-77.5-38.9-111.7 12-18.9 33.9-29.7 60.2-29.7 19.7 0 39.5 6 57.4 17.4 43.1 27.4 60.6 77.5 38.8 111.7-11.9 18.8-33.9 29.7-60.1 29.7z" fill="#FF6A48" p-id="1739"></path><path d="M214.4 254.7c17.3 0 35.6 5.6 51.6 15.7 38.1 24.2 54 67.5 35.5 96.6-9.9 15.7-28.5 24.6-51 24.6-17.3 0-35.6-5.6-51.6-15.7-38-24.2-54-67.5-35.5-96.6 10-15.7 28.6-24.6 51-24.6m0-21.9c-28.8 0-54.9 11.9-69.4 34.8-25 39.3-6.1 96.1 42.2 126.8 20.3 12.9 42.5 19.1 63.3 19.1 28.8 0 54.9-11.9 69.4-34.8 25-39.3 6.1-96.1-42.2-126.8-20.3-12.8-42.5-19.1-63.3-19.1z" fill="#7F0518" p-id="1740"></path><path d="M907.2 539.1c0 180.8-179.4 327.4-400.8 327.4S105.6 719.9 105.6 539.1c0-180.8 179.4-327.3 400.8-327.3 221.4-0.1 400.8 146.5 400.8 327.3z" fill="#FFC831" p-id="1741"></path><path d="M506.4 877.3c-227 0-411.7-151.8-411.7-338.3s184.7-338.3 411.7-338.3S918.1 352.5 918.1 539c0 186.6-184.7 338.3-411.7 338.3z m0-654.7c-215 0-389.9 141.9-389.9 316.4 0 174.5 174.9 316.4 389.9 316.4s389.9-142 389.9-316.4c0-174.4-174.9-316.4-389.9-316.4z" fill="#7F0518" p-id="1742"></path><path d="M683.7 500.4m-69.9 0a69.9 69.9 0 1 0 139.8 0 69.9 69.9 0 1 0-139.8 0Z" fill="#7F0518" p-id="1743"></path><path d="M666.1 486.3m-32.2 0a32.2 32.2 0 1 0 64.4 0 32.2 32.2 0 1 0-64.4 0Z" fill="#FFFFFF" p-id="1744"></path><path d="M707.4 533.2m-14.7 0a14.7 14.7 0 1 0 29.4 0 14.7 14.7 0 1 0-29.4 0Z" fill="#FFFFFF" p-id="1745"></path><path d="M334.1 500.4m-69.9 0a69.9 69.9 0 1 0 139.8 0 69.9 69.9 0 1 0-139.8 0Z" fill="#7F0518" p-id="1746"></path><path d="M316.5 486.3m-32.2 0a32.2 32.2 0 1 0 64.4 0 32.2 32.2 0 1 0-64.4 0Z" fill="#FFFFFF" p-id="1747"></path><path d="M357.8 533.2m-14.7 0a14.7 14.7 0 1 0 29.4 0 14.7 14.7 0 1 0-29.4 0Z" fill="#FFFFFF" p-id="1748"></path><path d="M727.8 400.5c-2.6 0-5.3-1-7.4-2.9-13.7-12.6-27.7-18.5-40.4-17.7-19 1.3-31.8 16.4-31.9 16.6-3.9 4.7-10.7 5.3-15.4 1.5-4.6-3.8-5.4-10.6-1.6-15.3 0.7-0.9 18.6-22.5 47-24.5 19.4-1.3 38.7 6.4 57 23.4 4.4 4.1 4.7 11 0.7 15.4-2.1 2.3-5 3.5-8 3.5z" fill="#7F0518" p-id="1749"></path><path d="M297.4 400.5c-2.4 0-4.9-0.8-6.9-2.4-4.7-3.8-5.4-10.7-1.6-15.4 0.7-0.9 18.6-22.5 47-24.5 19.3-1.3 38.7 6.4 57 23.4 4.4 4.1 4.7 11 0.7 15.4-4.1 4.5-11 4.8-15.5 0.6-13.7-12.6-27.1-18.5-40.7-17.6-18.8 1.4-31.5 16.3-31.6 16.5-2.1 2.6-5.3 4-8.4 4z" fill="#7F0518" p-id="1750"></path><path d="M575.9 627.3c0 23.6-27.4 42.8-61.2 42.8-33.8 0-61.2-19.2-61.2-42.8 0-23.7 27.4-42.8 61.2-42.8 33.8-0.1 61.2 19.1 61.2 42.8z" fill="#7F0518" p-id="1751"></path><path d="M449.5 754.1c-4.4 0-8.8-0.4-13.1-1.2-40.2-7.5-60.5-47.6-61.4-49.3-2.7-5.4-0.5-11.9 4.9-14.6 5.4-2.7 12-0.5 14.7 4.9 0.2 0.3 16.6 32.2 46 37.6 19.2 3.6 40.4-4.7 63.2-24.4v-52.5c0-6 4.9-10.9 10.9-10.9s10.9 4.9 10.9 10.9V712c0 3.1-1.3 6-3.6 8.1-24.8 22.6-49.1 34-72.5 34z" fill="#7F0518" p-id="1752"></path><path d="M580 754.1c-23.3 0-47.7-11.4-72.6-34.1-4.5-4.1-4.8-11-0.7-15.4s11-4.8 15.4-0.7c24.2 22 46.6 31.3 66.8 27.5 29.5-5.4 45.8-37.3 46-37.6 2.7-5.4 9.3-7.5 14.7-4.9 5.4 2.7 7.6 9.2 4.9 14.6-0.9 1.7-21.2 41.8-61.4 49.3-4.4 0.9-8.7 1.3-13.1 1.3z" fill="#7F0518" p-id="1753"></path><path d="M885.8 442.6c-47.6 31.5-53.1 33.3-94.3 33.4-5.2 0-12 2.4-11.9 7.6 0.1 4.2 4.8 6.4 8.8 7.6 29.9 8.3 63.7 11.1 121.3-22.2M895.1 501.1c-48.9 29.5-75.7 39.4-116.8 37.8-5.2-0.2-12.1 1.9-12.2 7.1-0.1 4.2 4.5 6.6 8.5 7.9 29.5 9.5 81.7 7.1 140.6-23.7" fill="#7F0518" p-id="1754"></path><path d="M129 442.6c47.6 31.5 53.1 33.3 94.3 33.4 5.2 0 12 2.4 11.9 7.6-0.1 4.2-4.8 6.4-8.8 7.6-29.9 8.3-63.7 11.1-121.3-22.2M119.7 501.1c48.9 29.5 75.7 39.4 116.8 37.8 5.2-0.2 12.1 1.9 12.2 7.1 0.1 4.2-4.5 6.6-8.5 7.9-29.5 9.5-81.7 7.1-140.6-23.7" fill="#7F0518" p-id="1755"></path><path d="M404.7 313.6c86.5-36.1 136.4-33.4 212.2 7.5 7.1 3.8 12.7 10.2 9.6 13.5-1.7 1.7-5.8 4.2-13.7 0.5-9.8-4.7-21.1-9.8-38.2-12.5-51-8.2-92.4-12.1-163.7 8.4-4.3 1.2-17.4 6.7-20.1 0.1-1.9-4.6-2.2-9.7 13.9-17.5z" fill="#7F0518" p-id="1756"></path><path d="M390.7 264.2c96.6-35.9 152.3-33 237.1 8.1 7.9 3.8 14.2 10.3 10.8 13.5-1.8 1.7-6.5 4.2-15.3 0.4-11-4.7-23.6-9.8-42.8-12.7-57-8.4-103.3-12.4-182.9 8-4.8 1.2-19.4 6.6-22.4 0-2.1-4.4-2.5-9.4 15.5-17.3z" fill="#7F0518" p-id="1757"></path><path d="M433.9 354.2c45.9-17.2 93.5-26.9 156.7 5.8 7.8 4 14.5 14.8 11 18-1.8 1.7-6.5 4.2-15.3 0.4-11-4.7-73.4-23.6-148-2.7-4.8 1.3-19.4 6.6-22.4 0-2-4.5 0-13.7 18-21.5z" fill="#7F0518" p-id="1758"></path><path d="M492.6 239.3c0.9 34.1 1.7 68.2 2.6 102.4 0.2 6.4 0.8 13.5 7.5 17.7 12.4-6.1 14.6-18.2 15.2-28.8 2-31.7 0-54.3 3.1-90.3" fill="#7F0518" p-id="1759"></path></svg>